<?xml version="1.0" encoding="utf-8"?>
<!-- Generator: Adobe Illustrator 19.1.0, SVG Export Plug-In . SVG Version: 6.00 Build 0)  -->
<svg version="1.1" id="Layer_1" xmlns="http://www.w3.org/2000/svg" xmlns:xlink="http://www.w3.org/1999/xlink" x="0px" y="0px"
	 viewBox="0 0 70 70" enable-background="new 0 0 70 70" xml:space="preserve">
<g>
	<g id="Background_132_">
		<g>
			<linearGradient id="SVGID_4_" gradientUnits="userSpaceOnUse" x1="35.0015" y1="11.3453" x2="35.0015" y2="58.5589">
				<stop  offset="0" style="stop-color:#29ABE2"/>
				<stop  offset="1" style="stop-color:#0071BC"/>
			</linearGradient>
			<path fill="url(#SVGID_4_)" d="M66.2,10.9H3.8c-1.6,0-2.8,1.3-2.8,2.8v42.5c0,1.6,1.3,2.8,2.8,2.8h62.3c1.6,0,2.8-1.3,2.8-2.8
				V13.8C69,12.2,67.7,10.9,66.2,10.9z"/>
		</g>
	</g>
	<g>
		<path fill="#FFFFFF" d="M7.1,28.7l-1.3-3.2l-1.3,3.2 M35.9,27.4c-0.3,0.2-0.6,0.2-0.9,0.2h-2.3v-1.8H35c0.3,0,0.7,0,0.9,0.1
			c0.2,0.1,0.4,0.4,0.4,0.7C36.3,27,36.2,27.3,35.9,27.4z M52.5,28.7l-1.3-3.2l-1.3,3.2H52.5z M21.6,32.1h-2l0-6.3l-2.8,6.3h-1.7
			l-2.8-6.3v6.3H8.6l-0.7-1.8h-4l-0.7,1.8H1l3.4-8h2.8l3.3,7.6v-7.6h3.1l2.5,5.4l2.3-5.4h3.2V32.1L21.6,32.1z M29.4,32.1h-6.4v-8
			h6.4v1.7H25v1.4h4.4v1.6H25v1.6h4.5V32.1z M38.4,26.3c0,1.3-0.9,1.9-1.3,2.1c0.4,0.2,0.8,0.4,0.9,0.7c0.3,0.4,0.3,0.8,0.3,1.5v1.6
			h-1.9l0-1c0-0.5,0-1.2-0.3-1.6c-0.3-0.3-0.7-0.3-1.4-0.3h-2.1v2.9h-1.9v-8h4.4c1,0,1.7,0,2.3,0.4C38.1,24.9,38.4,25.4,38.4,26.3z
			 M41.5,32.1h-2v-8h2V32.1z M64.1,32.1h-2.7l-3.6-6v6h-3.9l-0.7-1.8h-4l-0.7,1.8h-2.2c-0.9,0-2.1-0.2-2.8-0.9c-0.7-0.7-1-1.6-1-3.1
			c0-1.2,0.2-2.3,1-3.1c0.6-0.6,1.6-0.9,2.9-0.9h1.9v1.7h-1.8c-0.7,0-1.1,0.1-1.5,0.5c-0.3,0.3-0.5,1-0.5,1.8c0,0.9,0.2,1.5,0.5,1.9
			c0.3,0.3,0.8,0.4,1.3,0.4h0.9l2.7-6.3h2.9l3.2,7.6v-7.6h2.9l3.4,5.6v-5.6h2V32.1L64.1,32.1z M1,33.7h3.3L5,31.9h1.6l0.7,1.8h6.4
			v-1.4l0.6,1.4h3.3l0.6-1.4v1.4h16l0-2.9h0.3c0.2,0,0.3,0,0.3,0.4v2.5h8.3V33c0.7,0.4,1.7,0.7,3.1,0.7h3.5l0.7-1.8H52l0.7,1.8h6.7
			V32l1,1.7h5.4V22.5h-5.3v1.3l-0.7-1.3h-5.4v1.3l-0.7-1.3h-7.4c-1.2,0-2.3,0.2-3.2,0.7v-0.7H38v0.7c-0.6-0.5-1.3-0.7-2.2-0.7H17.3
			l-1.2,2.9l-1.3-2.9H8.9v1.3l-0.6-1.3h-5L1,27.8L1,33.7L1,33.7z"/>
		<path fill="#FFFFFF" d="M69,39.6h-3.5c-0.3,0-0.6,0-0.8,0.1c-0.2,0.1-0.3,0.3-0.3,0.6c0,0.3,0.2,0.5,0.4,0.6
			c0.2,0.1,0.4,0.1,0.7,0.1l1,0c1,0,1.7,0.2,2.2,0.6c0.1,0.1,0.1,0.1,0.2,0.2 M69,44.9c-0.5,0.7-1.4,1-2.6,1h-3.7v-1.7h3.7
			c0.4,0,0.6,0,0.8-0.2c0.1-0.1,0.2-0.3,0.2-0.5c0-0.2-0.1-0.4-0.2-0.5c-0.1-0.1-0.3-0.2-0.7-0.2c-1.8-0.1-4,0.1-4-2.5
			c0-1.2,0.7-2.4,2.7-2.4H69v-1.6h-3.5c-1.1,0-1.8,0.3-2.4,0.7v-0.7h-5.2c-0.8,0-1.8,0.2-2.3,0.7v-0.7h-9.3v0.7
			c-0.7-0.5-2-0.7-2.6-0.7h-6.2v0.7c-0.6-0.6-1.9-0.7-2.7-0.7h-6.9L26.3,38l-1.5-1.7H14.5v11.2h10.1l1.6-1.7l1.5,1.7l6.2,0v-2.6h0.6
			c0.8,0,1.8,0,2.7-0.4v3h5.1v-2.9h0.2c0.3,0,0.3,0,0.3,0.3v2.6h15.6c1,0,2-0.3,2.6-0.7v0.7h5c1,0,2-0.1,2.8-0.5V44.9L69,44.9z
			 M61.4,41.7c0.4,0.4,0.6,0.9,0.6,1.7c0,1.7-1.1,2.5-3,2.5h-3.7v-1.7h3.7c0.4,0,0.6,0,0.8-0.2c0.1-0.1,0.2-0.3,0.2-0.5
			c0-0.2-0.1-0.4-0.2-0.5c-0.1-0.1-0.3-0.2-0.7-0.2c-1.8-0.1-4,0.1-4-2.5c0-1.2,0.7-2.4,2.7-2.4h3.8v1.7h-3.5c-0.3,0-0.6,0-0.8,0.1
			C57.1,39.9,57,40,57,40.3c0,0.3,0.2,0.5,0.4,0.6c0.2,0.1,0.4,0.1,0.7,0.1l1,0C60.2,41,60.9,41.2,61.4,41.7z M44.1,41.2
			c-0.3,0.2-0.6,0.2-0.9,0.2h-2.3v-1.8h2.4c0.3,0,0.7,0,0.9,0.1c0.2,0.1,0.4,0.4,0.4,0.7C44.5,40.7,44.4,41,44.1,41.2z M45.3,42.2
			c0.4,0.2,0.8,0.4,0.9,0.7c0.3,0.4,0.3,0.8,0.3,1.5v1.6h-1.9v-1c0-0.5,0-1.2-0.3-1.6C44,43,43.6,43,42.9,43h-2v2.9h-1.9v-8h4.4
			c1,0,1.7,0,2.3,0.4c0.6,0.4,1,0.9,1,1.8C46.6,41.3,45.8,42,45.3,42.2z M47.7,37.9h6.4v1.7h-4.5V41H54v1.6h-4.4v1.6l4.5,0v1.7h-6.4
			V37.9z M34.8,41.6h-2.5v-2h2.5c0.7,0,1.2,0.3,1.2,1C36,41.2,35.5,41.6,34.8,41.6z M30.4,45.2l-2.9-3.3l2.9-3.2V45.2z M22.9,44.2
			h-4.7v-1.6h4.2V41h-4.2v-1.5h4.8l2.1,2.3L22.9,44.2z M38,40.5c0,2.2-1.7,2.7-3.3,2.7h-2.4v2.7h-3.7l-2.4-2.6l-2.4,2.6h-7.6v-8h7.7
			l2.4,2.6l2.4-2.6h6.1C36.3,37.9,38,38.3,38,40.5z"/>
	</g>
	<g id="Glare_132_" opacity="5.098039e-02">
		<g>
			<path fill="#FFFFFF" d="M65.1,10.9H4.9c-2.1,0-3.9,1.8-3.9,4v40.2c0,2.2,1.7,4,3.9,4L69,14.9C69,12.7,67.3,10.9,65.1,10.9z"/>
		</g>
	</g>
</g>
</svg>
