<?xml version="1.0" encoding="utf-8"?>
<!-- Generator: Adobe Illustrator 19.1.0, SVG Export Plug-In . SVG Version: 6.00 Build 0)  -->
<svg version="1.1" id="Layer_1" xmlns="http://www.w3.org/2000/svg" xmlns:xlink="http://www.w3.org/1999/xlink" x="0px" y="0px"
	 viewBox="0 0 70 70" enable-background="new 0 0 70 70" xml:space="preserve">
<g>
	<g>
		<path fill="#FFFFFF" d="M52.2,49.5H12c-0.5,0-1-0.4-1-1s0.4-1,1-1h40c1-0.6,1.4-1.2,1.4-2.4c0-1-0.2-2.2-1.3-2.4h-41
			c-2.4,0.3-4.7-1.1-5.4-3.4L1.2,25.1C0.7,23.6,1,21.8,2,20.5c1-1.3,2.6-2.1,4.3-2.1h49.2c1,0,1.8-0.7,1.9-1.6l1-7.6
			C58.4,7.9,59.5,7,60.7,7H68c0.5,0,1,0.4,1,1s-0.4,1-1,1h-7.3c-0.2,0-0.4,0.2-0.5,0.4l-1,7.6c-0.2,1.9-1.9,3.3-3.8,3.3H6.3
			c-1.1,0-2.1,0.5-2.7,1.3c-0.6,0.8-0.8,1.9-0.5,2.9l4.5,14.2c0.4,1.3,1.9,2.3,3.3,2c0.1,0,0.1,0,0.2,0h41.2c0.1,0,0.1,0,0.2,0
			c1.8,0.3,2.9,2,2.9,4.3c0,2-0.8,3.3-2.7,4.2C52.5,49.4,52.4,49.5,52.2,49.5z"/>
	</g>
	<g>
		<path fill="#FFFFFF" d="M55.1,38.8c0,0-0.1,0-0.1,0c-0.5-0.1-0.9-0.5-0.9-1.1l1.4-12.8c0.1-0.5,0.5-0.9,1.1-0.8
			c0.5,0.1,0.9,0.5,0.9,1.1l-1.4,12.8C56,38.4,55.6,38.8,55.1,38.8z"/>
	</g>
	<g>
		<path fill="#FFFFFF" d="M49.8,63c-3,0-5.5-2.5-5.5-5.5c0-3,2.5-5.5,5.5-5.5c3,0,5.5,2.5,5.5,5.5C55.3,60.5,52.9,63,49.8,63z
			 M49.8,54c-2,0-3.6,1.6-3.6,3.5s1.6,3.5,3.6,3.5c2,0,3.6-1.6,3.6-3.5S51.8,54,49.8,54z"/>
	</g>
	<g>
		<path fill="#FFFFFF" d="M17.9,63c-3,0-5.5-2.5-5.5-5.5c0-3,2.5-5.5,5.5-5.5s5.5,2.5,5.5,5.5C23.4,60.5,21,63,17.9,63z M17.9,54
			c-2,0-3.6,1.6-3.6,3.5s1.6,3.5,3.6,3.5c2,0,3.6-1.6,3.6-3.5S19.9,54,17.9,54z"/>
	</g>
</g>
</svg>
