<?xml version="1.0" encoding="utf-8"?>
<!-- Generator: Adobe Illustrator 19.1.0, SVG Export Plug-In . SVG Version: 6.00 Build 0)  -->
<svg version="1.1" id="Layer_1" xmlns="http://www.w3.org/2000/svg" xmlns:xlink="http://www.w3.org/1999/xlink" x="0px" y="0px"
	 viewBox="0 0 70 70" enable-background="new 0 0 70 70" xml:space="preserve">
<g>
	<g>
		<path fill="#FFFFFF" d="M52.9,53.1h-3.5c-0.5,0-1-0.4-1-1c0-0.5,0.4-1,1-1h3.5c4.2,0,7.1-2.9,7.1-7s-2.9-7-7.1-7h-3.5
			c-0.5,0-1-0.4-1-1s0.4-1,1-1h3.5c5.3,0,9.1,3.8,9.1,8.9S58.2,53.1,52.9,53.1z"/>
	</g>
	<g>
		<path fill="#FFFFFF" d="M43.7,69H18.2c-3.8,0-6.8-2.9-6.8-6.7V31.6c0-0.5,0.4-1,1-1h37c0.5,0,1,0.4,1,1v30.8
			C50.4,66.1,47.5,69,43.7,69z M13.4,32.6v29.8c0,2.6,2.1,4.7,4.8,4.7h25.4c2.8,0,4.8-2,4.8-4.7V32.6H13.4z"/>
	</g>
	<g>
		<path fill="#FFFFFF" d="M52.5,19.2c-0.8,0-1.7-0.2-2.7-0.6c-1.5-0.6-2.6-1.7-3.2-3c-0.6-1.3-0.5-2.9,0.1-4.4
			c0.3-0.8,0.9-1.5,1.5-2.2c1.5-1.9,2.9-3.6,1.1-6.3c-0.2-0.3-0.2-0.8,0-1.1s0.6-0.5,1-0.4c4,1,6.9,3.8,7.8,7.7
			c0.8,3.5-0.1,7.2-2.3,9C54.9,18.7,53.8,19.2,52.5,19.2z M52,3.9c0.7,2.7-0.9,4.7-2.2,6.3c-0.5,0.6-1,1.3-1.2,1.8
			c-0.4,1-0.5,2-0.1,2.9c0.4,0.9,1.1,1.5,2.2,2c1.6,0.7,2.9,0.5,4-0.4c1.7-1.4,2.3-4.3,1.7-7.1C55.7,6.9,54.2,5,52,3.9z"/>
	</g>
	<g>
		<path fill="#FFFFFF" d="M41.2,32.6c-0.2,0-0.3,0-0.5-0.1c-0.5-0.3-0.7-0.8-0.4-1.3l8-14.4c0.3-0.5,0.9-0.6,1.3-0.4
			c0.5,0.3,0.7,0.8,0.4,1.3l-8,14.4C41.9,32.4,41.6,32.6,41.2,32.6z"/>
	</g>
	<g>
		<path fill="#FFFFFF" d="M47.2,32.6c-0.1,0-0.2,0-0.3-0.1c-0.5-0.2-0.8-0.8-0.6-1.3l5.2-13.4c0.2-0.5,0.8-0.8,1.3-0.6
			c0.5,0.2,0.8,0.8,0.6,1.3l-5.2,13.4C48,32.3,47.6,32.6,47.2,32.6z"/>
	</g>
	<g>
		<path fill="#FFFFFF" d="M24,32.6h-9.2c-0.4,0-0.7-0.2-0.9-0.5l-4.6-9.1c-0.1-0.1-0.1-0.2-0.1-0.3L8,13.5c0-0.4,0.1-0.7,0.4-0.9
			c0.3-0.2,0.7-0.2,1,0l8.1,4.6c0.2,0.1,0.3,0.2,0.4,0.4l6.9,13.7c0.2,0.3,0.1,0.7,0,0.9C24.7,32.4,24.4,32.6,24,32.6z M15.4,30.6h7
			l-6.1-12l-6.1-3.4l0.9,7L15.4,30.6z"/>
	</g>
	<g>
		<path fill="#FFFFFF" d="M10.1,23.4c-0.3,0-0.6-0.2-0.8-0.4c-0.3-0.4-0.2-1,0.3-1.3l6.9-4.6c0.5-0.3,1.1-0.2,1.4,0.3
			c0.3,0.4,0.2,1-0.3,1.3l-6.9,4.6C10.5,23.4,10.3,23.4,10.1,23.4z"/>
	</g>
	<g>
		<path fill="#FFFFFF" d="M40.2,32.6H26.3c-0.5,0-1-0.4-1-1V2c0-0.5,0.4-1,1-1h13.9c0.5,0,1,0.4,1,1v29.6
			C41.2,32.1,40.7,32.6,40.2,32.6z M27.3,30.6h11.9V2.9H27.3V30.6z"/>
	</g>
	<g>
		<path fill="#FFFFFF" d="M40.2,9.8h-6.9c-0.5,0-1-0.4-1-1s0.4-1,1-1h6.9c0.5,0,1,0.4,1,1S40.7,9.8,40.2,9.8z"/>
	</g>
	<g>
		<path fill="#FFFFFF" d="M40.2,14.3h-4.6c-0.5,0-1-0.4-1-1s0.4-1,1-1h4.6c0.5,0,1,0.4,1,1S40.7,14.3,40.2,14.3z"/>
	</g>
	<g>
		<path fill="#FFFFFF" d="M40.2,18.9h-6.9c-0.5,0-1-0.4-1-1s0.4-1,1-1h6.9c0.5,0,1,0.4,1,1S40.7,18.9,40.2,18.9z"/>
	</g>
	<g>
		<path fill="#FFFFFF" d="M40.2,25.7h-4.6c-0.5,0-1-0.4-1-1c0-0.5,0.4-1,1-1h4.6c0.5,0,1,0.4,1,1C41.2,25.3,40.7,25.7,40.2,25.7z"/>
	</g>
</g>
</svg>
