<?xml version="1.0" encoding="utf-8"?>
<!-- Generator: Adobe Illustrator 19.1.0, SVG Export Plug-In . SVG Version: 6.00 Build 0)  -->
<svg version="1.1" id="Layer_1" xmlns="http://www.w3.org/2000/svg" xmlns:xlink="http://www.w3.org/1999/xlink" x="0px" y="0px"
	 viewBox="0 0 100 100" enable-background="new 0 0 100 100" xml:space="preserve">
<g>
	<g>
		<path fill="#FFFFFF" d="M50,99C23,99,1,77,1,50S23,1,50,1s49,22,49,49S77,99,50,99z M50,3.9C24.6,3.9,3.9,24.6,3.9,50
			S24.6,96.1,50,96.1S96.1,75.4,96.1,50S75.4,3.9,50,3.9z"/>
	</g>
	<g>
		<path fill="#FFFFFF" d="M50,86.6c-17.9,0-32.5-14.2-32.5-31.7c0-0.8,0.7-1.5,1.5-1.5h62c0.8,0,1.5,0.7,1.5,1.5
			C82.5,72.4,67.9,86.6,50,86.6z M20.5,56.4c0.8,14.9,14,27.3,29.5,27.3s28.7-12.4,29.5-27.3H20.5z"/>
	</g>
	<g>
		<path fill="#FFFFFF" d="M38.5,43.3c-0.8,0-1.5-0.7-1.5-1.5c0-3.8-3-6.7-6.7-6.7s-6.7,3-6.7,6.7c0,0.8-0.7,1.5-1.5,1.5
			s-1.5-0.7-1.5-1.5c0-5.4,4.2-9.7,9.7-9.7s9.7,4.2,9.7,9.7C39.9,42.6,39.3,43.3,38.5,43.3z"/>
	</g>
	<g>
		<path fill="#FFFFFF" d="M77.8,43.3c-0.8,0-1.5-0.7-1.5-1.5c0-3.8-3-6.7-6.7-6.7c-3.8,0-6.7,3-6.7,6.7c0,0.8-0.7,1.5-1.5,1.5
			s-1.5-0.7-1.5-1.5c0-5.4,4.2-9.7,9.7-9.7c5.4,0,9.7,4.2,9.7,9.7C79.3,42.6,78.6,43.3,77.8,43.3z"/>
	</g>
</g>
</svg>
