<?xml version="1.0" encoding="utf-8"?>
<!-- Generator: Adobe Illustrator 19.1.0, SVG Export Plug-In . SVG Version: 6.00 Build 0)  -->
<svg version="1.1" id="Layer_1" xmlns="http://www.w3.org/2000/svg" xmlns:xlink="http://www.w3.org/1999/xlink" x="0px" y="0px"
	 viewBox="0 0 40 40" enable-background="new 0 0 40 40" xml:space="preserve">
<g>
	<g>
		<path fill="#FFFFFF" d="M39,9H1C0.7,9,0.5,8.8,0.5,8.5S0.7,8,1,8h38c0.3,0,0.5,0.2,0.5,0.5S39.3,9,39,9z"/>
	</g>
	<g>
		<path fill="#FFFFFF" d="M39,20.5H1c-0.3,0-0.5-0.2-0.5-0.5s0.2-0.5,0.5-0.5h38c0.3,0,0.5,0.2,0.5,0.5S39.3,20.5,39,20.5z"/>
	</g>
	<g>
		<path fill="#FFFFFF" d="M39,32H1c-0.3,0-0.5-0.2-0.5-0.5S0.7,31,1,31h38c0.3,0,0.5,0.2,0.5,0.5S39.3,32,39,32z"/>
	</g>
</g>
</svg>
