<?xml version="1.0" encoding="utf-8"?>
<!-- Generator: Adobe Illustrator 19.1.0, SVG Export Plug-In . SVG Version: 6.00 Build 0)  -->
<svg version="1.1" id="Layer_1" xmlns="http://www.w3.org/2000/svg" xmlns:xlink="http://www.w3.org/1999/xlink" x="0px" y="0px"
	 viewBox="0 0 100 100" enable-background="new 0 0 100 100" xml:space="preserve">
<g>
	<g>
		<path fill="#FFFFFF" d="M30.3,99c-0.2,0-0.4,0-0.6-0.1c-0.6-0.3-1-1-0.8-1.7l12.6-44H27c-0.4,0-0.9-0.2-1.1-0.6
			c-0.3-0.3-0.4-0.8-0.3-1.2L37.1,2.1C37.3,1.5,37.8,1,38.5,1H73c0.5,0,1,0.3,1.3,0.8c0.3,0.5,0.2,1-0.1,1.5L54.3,33.8H73
			c0.5,0,1,0.3,1.3,0.8c0.3,0.5,0.2,1.1-0.1,1.5L31.5,98.4C31.2,98.8,30.8,99,30.3,99z M28.9,50.2h14.6c0.5,0,0.9,0.2,1.2,0.6
			c0.3,0.4,0.4,0.8,0.2,1.3L34.2,89.3l36-52.6H51.6c-0.5,0-1-0.3-1.3-0.8c-0.3-0.5-0.2-1,0.1-1.5L70.3,3.9H39.7L28.9,50.2z"/>
	</g>
</g>
</svg>
