<?xml version="1.0" encoding="utf-8"?>
<!-- Generator: Adobe Illustrator 19.1.0, SVG Export Plug-In . SVG Version: 6.00 Build 0)  -->
<svg version="1.1" id="Layer_1" xmlns="http://www.w3.org/2000/svg" xmlns:xlink="http://www.w3.org/1999/xlink" x="0px" y="0px"
	 viewBox="0 0 40 40" enable-background="new 0 0 40 40" xml:space="preserve">
<path fill="#FFFFFF" d="M14,36.2h-4c-2.2,0-4-1.8-4-4V7.8c0-2.2,1.8-4,4-4h4c2.2,0,4,1.8,4,4v24.5C18,34.4,16.2,36.2,14,36.2z"/>
<path fill="#FFFFFF" d="M30.2,36.2h-4c-2.2,0-4-1.8-4-4V7.8c0-2.2,1.8-4,4-4h4c2.2,0,4,1.8,4,4v24.5C34.2,34.4,32.4,36.2,30.2,36.2z
	"/>
</svg>
