<?xml version="1.0" encoding="utf-8"?>
<!-- Generator: Adobe Illustrator 19.1.0, SVG Export Plug-In . SVG Version: 6.00 Build 0)  -->
<svg version="1.1" id="Layer_1" xmlns="http://www.w3.org/2000/svg" xmlns:xlink="http://www.w3.org/1999/xlink" x="0px" y="0px"
	 viewBox="0 0 70 70" enable-background="new 0 0 70 70" xml:space="preserve">
<g>
	<g>
		<path fill="#FFFFFF" d="M51.5,63h-33c-0.5,0-1-0.4-1-1V25.6L12.1,31c-0.4,0.4-1,0.4-1.4,0l-9.4-9.4C1.1,21.4,1,21.1,1,20.8
			c0-0.3,0.2-0.5,0.4-0.7l11.8-9.2C16.4,8.4,20.4,7,24.5,7h21c4.1,0,8.1,1.4,11.3,3.9l11.8,9.2c0.2,0.2,0.4,0.4,0.4,0.7
			c0,0.3-0.1,0.5-0.3,0.7L59.3,31c-0.4,0.4-1,0.4-1.4,0l-5.4-5.4V62C52.5,62.6,52.1,63,51.5,63z M19.5,61.1h31.1V23.2
			c0-0.4,0.2-0.7,0.6-0.9c0.4-0.1,0.8-0.1,1.1,0.2l6.4,6.4l8-7.9l-10.9-8.6c-2.9-2.2-6.5-3.5-10.1-3.5h-21c-3.6,0-7.2,1.2-10.1,3.5
			L3.4,21l8,7.9l6.4-6.4c0.3-0.3,0.7-0.4,1.1-0.2c0.4,0.1,0.6,0.5,0.6,0.9V61.1z"/>
	</g>
	<g>
		<path fill="#FFFFFF" d="M36.2,18.3c-5.7,0-10.4-4.7-10.4-10.4c0-0.5,0.4-1,1-1s1,0.4,1,1c0,4.7,3.8,8.4,8.5,8.4s8.5-3.8,8.5-8.4
			c0-0.5,0.4-1,1-1c0.5,0,1,0.4,1,1C46.6,13.7,41.9,18.3,36.2,18.3z"/>
	</g>
</g>
</svg>
