<?xml version="1.0" encoding="utf-8"?>
<!-- Generator: Adobe Illustrator 19.1.0, SVG Export Plug-In . SVG Version: 6.00 Build 0)  -->
<svg version="1.1" id="Layer_1" xmlns="http://www.w3.org/2000/svg" xmlns:xlink="http://www.w3.org/1999/xlink" x="0px" y="0px"
	 viewBox="0 0 100 100" enable-background="new 0 0 100 100" xml:space="preserve">
<g>
	<g>
		<g>
			<g>
				<path fill="#FFFFFF" d="M36.2,92.9H13.6c-0.7,0-1.3-0.6-1.3-1.3V68l-2.7,2.7c-0.5,0.5-1.3,0.5-1.8,0l-6.5-6.5
					C1.1,64,1,63.6,1,63.3c0-0.4,0.2-0.7,0.5-0.9l11.3-8.9c0.2-0.2,0.5-0.3,0.8-0.3h1.6c0.7,0,1.3,0.6,1.3,1.3
					c0,0.7-0.6,1.3-1.3,1.3H14l-9.8,7.7L8.7,68l4-4c0.4-0.4,0.9-0.5,1.4-0.3c0.5,0.2,0.8,0.7,0.8,1.2v25.4H35V65
					c0-0.5,0.3-1,0.8-1.2c0.5-0.2,1-0.1,1.4,0.3l4,4l4.6-4.6l-9.8-7.7h-1.2c-0.7,0-1.3-0.6-1.3-1.3c0-0.7,0.6-1.3,1.3-1.3h1.6
					c0.3,0,0.6,0.1,0.8,0.3l11.3,8.9c0.3,0.2,0.5,0.6,0.5,0.9c0,0.4-0.1,0.7-0.4,1L42,70.7c-0.2,0.2-0.6,0.4-0.9,0.4l0,0
					c-0.3,0-0.7-0.1-0.9-0.4L37.5,68v23.6C37.5,92.4,37,92.9,36.2,92.9z"/>
			</g>
			<g>
				<path fill="#FFFFFF" d="M24.9,59L24.9,59c-0.3,0-0.7-0.1-0.9-0.4l-6.5-6.5c-0.4-0.4-0.5-0.9-0.3-1.4c0.2-0.5,0.7-0.8,1.2-0.8
					h12.9c0.5,0,1,0.3,1.2,0.8c0.2,0.5,0.1,1-0.3,1.4l-6.5,6.5C25.6,58.8,25.3,59,24.9,59z M21.5,52.5l3.4,3.4l3.4-3.4H21.5z"/>
			</g>
			<g>
				<path fill="#FFFFFF" d="M28.2,62.2c-0.3,0-0.7-0.1-0.9-0.4L24,58.6c-0.2-0.2-0.4-0.6-0.4-0.9c0-0.3,0.1-0.7,0.4-0.9l6.5-6.5
					c0.5-0.5,1.3-0.5,1.8,0l3.2,3.2c0.2,0.2,0.4,0.6,0.4,0.9c0,0.3-0.1,0.7-0.4,0.9l-6.5,6.5C28.8,62.1,28.5,62.2,28.2,62.2z
					 M26.7,57.7l1.4,1.4l4.7-4.7L31.4,53L26.7,57.7z"/>
			</g>
			<g>
				<path fill="#FFFFFF" d="M21.7,62.2c-0.3,0-0.7-0.1-0.9-0.4l-6.5-6.5c-0.2-0.2-0.4-0.6-0.4-0.9c0-0.3,0.1-0.7,0.4-0.9l3.2-3.2
					c0.2-0.2,0.6-0.4,0.9-0.4l0,0c0.3,0,0.7,0.1,0.9,0.4l6.5,6.5c0.5,0.5,0.5,1.3,0,1.8l-3.2,3.2C22.4,62.1,22,62.2,21.7,62.2z
					 M17,54.5l4.7,4.7l1.4-1.4L18.5,53L17,54.5z"/>
			</g>
			<g>
				<path fill="#FFFFFF" d="M24.9,68.7c-0.7,0-1.3-0.6-1.3-1.3v-9.7c0-0.7,0.6-1.3,1.3-1.3s1.3,0.6,1.3,1.3v9.7
					C26.2,68.1,25.6,68.7,24.9,68.7z"/>
			</g>
		</g>
		<g>
			<g>
				<path fill="#FFFFFF" d="M86.4,92.9H63.8c-0.7,0-1.3-0.6-1.3-1.3V68l-2.7,2.7c-0.2,0.2-0.6,0.4-0.9,0.4l0,0
					c-0.3,0-0.7-0.1-0.9-0.4l-6.5-6.5c-0.3-0.3-0.4-0.6-0.4-1c0-0.4,0.2-0.7,0.5-0.9l8.1-6.4c2.3-1.8,5.2-2.8,8.1-2.8h14.4
					c2.9,0,5.8,1,8.1,2.8l8.1,6.4c0.3,0.2,0.5,0.6,0.5,0.9c0,0.4-0.1,0.7-0.4,1l-6.5,6.5c-0.5,0.5-1.3,0.5-1.8,0L87.7,68v23.6
					C87.7,92.4,87.1,92.9,86.4,92.9z M65,90.4h20.1V65c0-0.5,0.3-1,0.8-1.2c0.5-0.2,1-0.1,1.4,0.3l4,4l4.6-4.6l-7-5.5
					c-1.9-1.5-4.2-2.3-6.6-2.3H67.9c-2.4,0-4.7,0.8-6.6,2.3l-7,5.5l4.6,4.6l4-4c0.4-0.4,0.9-0.5,1.4-0.3C64.7,64,65,64.5,65,65V90.4
					z"/>
			</g>
			<g>
				<path fill="#FFFFFF" d="M75.9,62.2c-4.3,0-7.7-3.5-7.7-7.7c0-0.7,0.6-1.3,1.3-1.3c0.7,0,1.3,0.6,1.3,1.3c0,2.9,2.3,5.2,5.2,5.2
					c2.9,0,5.2-2.3,5.2-5.2c0-0.7,0.6-1.3,1.3-1.3c0.7,0,1.3,0.6,1.3,1.3C83.6,58.7,80.2,62.2,75.9,62.2z"/>
			</g>
		</g>
	</g>
	<g>
		<g>
			<path fill="#FFFFFF" d="M61.3,46.8H38.7c-0.7,0-1.3-0.6-1.3-1.3V18.9c0-0.4,0.2-0.8,0.6-1.1c0.1-0.1,3.5-2.5,3.5-9.4
				c0-0.7,0.6-1.3,1.3-1.3h14.4c0.7,0,1.3,0.6,1.3,1.3c0,6.4,3.6,9.5,3.6,9.5c0.3,0.2,0.5,0.6,0.5,1v26.7
				C62.6,46.3,62,46.8,61.3,46.8z M40,44.3H60V19.4c-1.1-1.1-3.7-4.3-4.1-9.8H44c-0.3,5.9-2.9,8.8-4.1,9.9V44.3z"/>
		</g>
		<g>
			<path fill="#FFFFFF" d="M50,16.1c-4.3,0-7.7-3.5-7.7-7.7c0-0.7,0.6-1.3,1.3-1.3s1.3,0.6,1.3,1.3c0,2.9,2.3,5.2,5.2,5.2
				c2.9,0,5.2-2.3,5.2-5.2c0-0.7,0.6-1.3,1.3-1.3s1.3,0.6,1.3,1.3C57.7,12.6,54.3,16.1,50,16.1z"/>
		</g>
	</g>
</g>
</svg>
