<?xml version="1.0" encoding="utf-8"?>
<!-- Generator: Adobe Illustrator 19.1.0, SVG Export Plug-In . SVG Version: 6.00 Build 0)  -->
<svg version="1.1" id="Layer_1" xmlns="http://www.w3.org/2000/svg" xmlns:xlink="http://www.w3.org/1999/xlink" x="0px" y="0px"
	 viewBox="0 0 70 70" enable-background="new 0 0 70 70" xml:space="preserve">
<g>
	<g>
		<path fill="#FFFFFF" d="M14.5,66c-3,0-5.5-2.5-5.5-5.5c0-3,2.5-5.5,5.5-5.5s5.5,2.5,5.5,5.5C20,63.5,17.5,66,14.5,66z M14.5,56.9
			c-2,0-3.6,1.6-3.6,3.6c0,2,1.6,3.6,3.6,3.6c2,0,3.6-1.6,3.6-3.6C18.1,58.5,16.5,56.9,14.5,56.9z"/>
	</g>
	<g>
		<path fill="#FFFFFF" d="M45.3,66c-3,0-5.5-2.5-5.5-5.5c0-3,2.5-5.5,5.5-5.5s5.5,2.5,5.5,5.5C50.8,63.5,48.3,66,45.3,66z
			 M45.3,56.9c-2,0-3.6,1.6-3.6,3.6c0,2,1.6,3.6,3.6,3.6s3.6-1.6,3.6-3.6C48.8,58.5,47.2,56.9,45.3,56.9z"/>
	</g>
	<g>
		<path fill="#FFFFFF" d="M46.4,56.9H14.5c-0.5,0-1-0.4-1-1c0-0.5,0.4-1,1-1h31.1L57,8.1c0.1-0.4,0.5-0.7,0.9-0.7H68
			c0.5,0,1,0.4,1,1c0,0.5-0.4,1-1,1h-9.3L47.3,56.2C47.2,56.6,46.8,56.9,46.4,56.9z"/>
	</g>
	<g>
		<path fill="#FFFFFF" d="M47.5,52.4H10.6c-0.4,0-0.8-0.3-0.9-0.7L1,24.5c-0.1-0.3,0-0.6,0.1-0.9c0.2-0.2,0.5-0.4,0.8-0.4h52.1
			c0.5,0,1,0.4,1,1s-0.4,1-1,1H3.3l8,25.3h36.2c0.5,0,1,0.4,1,1S48.1,52.4,47.5,52.4z"/>
	</g>
	<g>
		<path fill="#FFFFFF" d="M53.2,25.2c-0.3,0-0.6-0.1-0.7-0.4l-8.9-10.8L32.3,24.9c-0.4,0.4-1,0.4-1.4,0c-0.4-0.4-0.4-1,0-1.4
			l12-11.6c0.2-0.2,0.4-0.3,0.7-0.3c0.3,0,0.5,0.1,0.7,0.3L54,23.6c0.3,0.4,0.3,1-0.1,1.4C53.7,25.1,53.4,25.2,53.2,25.2z"/>
	</g>
	<g>
		<path fill="#FFFFFF" d="M8.8,25.2c-0.4,0-0.7-0.2-0.9-0.6L1.1,8.7c-0.2-0.5,0-1,0.5-1.3l7.2-3.4C9,4,9.2,4,9.5,4.1
			C9.7,4.1,9.9,4.3,10,4.6l8.8,19.3c0.2,0.5,0,1.1-0.5,1.3c-0.5,0.2-1.1,0-1.3-0.5L8.7,6.3L3.2,8.8l6.5,15c0.2,0.5,0,1.1-0.5,1.3
			C9.1,25.2,8.9,25.2,8.8,25.2z"/>
	</g>
	<g>
		<path fill="#FFFFFF" d="M27,25.2c-0.5,0-1-0.4-1-1v-9.1c0-0.5,0.4-1,1-1h14c0.5,0,1,0.4,1,1c0,0.5-0.4,1-1,1H28v8.1
			C28,24.8,27.6,25.2,27,25.2z"/>
	</g>
</g>
</svg>
