<?xml version="1.0" encoding="utf-8"?>
<!-- Generator: Adobe Illustrator 19.1.0, SVG Export Plug-In . SVG Version: 6.00 Build 0)  -->
<svg version="1.1" id="Layer_1" xmlns="http://www.w3.org/2000/svg" xmlns:xlink="http://www.w3.org/1999/xlink" x="0px" y="0px"
	 viewBox="0 0 70 70" enable-background="new 0 0 70 70" xml:space="preserve">
<g>
	<g>
		<path fill="#FFFFFF" d="M20.9,62.4c-2.7,0-4.9-2.2-4.9-4.9c0-2.7,2.2-4.9,4.9-4.9s4.9,2.2,4.9,4.9C25.8,60.2,23.6,62.4,20.9,62.4z
			 M20.9,54.4c-1.7,0-3.2,1.4-3.2,3.1c0,1.7,1.4,3.1,3.2,3.1c1.7,0,3.2-1.4,3.2-3.1C24.1,55.8,22.7,54.4,20.9,54.4z"/>
	</g>
	<g>
		<path fill="#FFFFFF" d="M48,62.4c-2.7,0-4.9-2.2-4.9-4.9c0-2.7,2.2-4.9,4.9-4.9c2.7,0,4.9,2.2,4.9,4.9
			C52.9,60.2,50.7,62.4,48,62.4z M48,54.4c-1.7,0-3.2,1.4-3.2,3.1c0,1.7,1.4,3.1,3.2,3.1c1.7,0,3.2-1.4,3.2-3.1
			C51.2,55.8,49.8,54.4,48,54.4z"/>
	</g>
	<g>
		<path fill="#FFFFFF" d="M49,54.4H20.9c-0.5,0-0.9-0.4-0.9-0.9c0-0.5,0.4-0.9,0.9-0.9h27.5l10.1-41.3c0.1-0.4,0.4-0.7,0.8-0.7h8.9
			c0.5,0,0.9,0.4,0.9,0.9c0,0.5-0.4,0.9-0.9,0.9h-8.2L49.9,53.7C49.8,54.1,49.4,54.4,49,54.4z"/>
	</g>
	<g>
		<path fill="#FFFFFF" d="M50.1,50.4H17.5c-0.4,0-0.7-0.2-0.8-0.6L9,25.8C9,25.5,9,25.2,9.2,25c0.2-0.2,0.4-0.3,0.7-0.3h46
			c0.5,0,0.9,0.4,0.9,0.9s-0.4,0.9-0.9,0.9H11l7.1,22.3h32c0.5,0,0.9,0.4,0.9,0.9C50.9,50,50.5,50.4,50.1,50.4z"/>
	</g>
	<g>
		<path fill="#FFFFFF" d="M55.1,26.4c-0.2,0-0.5-0.1-0.7-0.3l-7.9-9.5l-10,9.6c-0.3,0.3-0.9,0.3-1.2,0c-0.3-0.3-0.3-0.9,0-1.2
			L46,14.7c0.2-0.2,0.4-0.3,0.6-0.2c0.2,0,0.5,0.1,0.6,0.3L55.7,25c0.3,0.4,0.2,0.9-0.1,1.2C55.5,26.3,55.3,26.4,55.1,26.4z"/>
	</g>
	<g>
		<path fill="#FFFFFF" d="M15.9,26.4c-0.3,0-0.6-0.2-0.8-0.5l-6-14c-0.2-0.4,0-0.9,0.4-1.1l6.3-3c0.2-0.1,0.4-0.1,0.7,0
			c0.2,0.1,0.4,0.2,0.5,0.4l7.7,17c0.2,0.4,0,0.9-0.4,1.1c-0.4,0.2-0.9,0-1.1-0.4L15.8,9.6L11,11.9l5.7,13.2c0.2,0.4,0,0.9-0.4,1.1
			C16.1,26.3,16,26.4,15.9,26.4z"/>
	</g>
	<g>
		<path fill="#FFFFFF" d="M32,26.4c-0.5,0-0.9-0.4-0.9-0.9v-8c0-0.5,0.4-0.9,0.9-0.9h12.3c0.5,0,0.9,0.4,0.9,0.9s-0.4,0.9-0.9,0.9
			H32.8v7.1C32.8,26,32.4,26.4,32,26.4z"/>
	</g>
</g>
</svg>
